#!OML:ASF F:\VICON\USERDATA\INSTALL\rory3\rory3.ASF
:FULLY-SPECIFIED
:DEGREES
4468
root -3.40303 19.1376 1.65718 -11.1452 -47.7599 20.334
lowerback 9.08279 -1.63626 -0.0495823
upperback 2.10245 -2.08578 5.12987
thorax -2.71059 -1.06591 5.61706
lowerneck -15.0314 6.4255 -2.28143
upperneck -5.05843 8.54293 12.0627
head 0.288151 4.39159 4.38348
rclavicle -7.15625e-014 4.13472e-014
rhumerus -18.4037 -6.51018 -60.2044
rradius 21.1396
rwrist 9.6888
rhand -30.5232 363.274
rfingers 7.12502
rthumb -3.82273 -26.6711
lclavicle -7.15625e-014 4.13472e-014
lhumerus 70.8961 12.3772 26.314
lradius 40.8184
lwrist -26.8189
lhand -35.4916 16.042
lfingers 7.12502
lthumb -8.61923 45.846
rfemur -12.0694 20.9586 6.17128
rtibia 27.089
rfoot -18.2211 -13.7486
rtoes 3.41705
lfemur -2.35839 2.60906 -18.4894
ltibia 24.3082
lfoot 13.0467 32.0837
ltoes 8.13403
4469
root -3.40781 19.1339 1.6633 -11.6513 -47.6585 20.7338
lowerback 9.1965 -1.54658 -0.498826
upperback 2.12965 -2.00739 5.05865
thorax -2.73977 -1.0236 5.79418
lowerneck -14.9969 6.34167 -2.69288
upperneck -5.46299 8.5337 12.406
head 0.136922 4.3809 4.54441
rclavicle 3.18055e-015 -8.90555e-014
rhumerus -18.4716 -6.34666 -60.1849
rradius 21.1755
rwrist 9.59403
rhand -30.47 363.166
rfingers 7.12502
rthumb -3.77136 -26.7805
lclavicle 3.18055e-015 -8.90555e-014
lhumerus 71.4214 13.1195 27.4097
lradius 40.4639
lwrist -26.6832
lhand -35.5013 16.4091
lfingers 7.12502
lthumb -8.62859 46.2128
rfemur -11.7002 21.2113 5.95028
rtibia 27.0036
rfoot -18.4106 -13.9112
rtoes 3.77371
lfemur -2.08406 3.05289 -18.7901
ltibia 24.2229
lfoot 12.6149 32.3288
ltoes 9.41181
4470
root -3.40947 19.134 1.66479 -11.7191 -47.5344 20.7921
lowerback 9.17279 -1.46497 -0.676884
upperback 2.13488 -1.91705 4.96509
thorax -2.72787 -0.976922 5.78551
lowerneck -15.2203 6.2673 -2.5673
upperneck -5.57043 8.41547 12.3806
head 0.154268 4.32082 4.52133
rclavicle -8.42847e-014 -4.13472e-014
rhumerus -18.5336 -6.30592 -60.3209
rradius 21.1982
rwrist 9.42257
rhand -30.7702 362.92
rfingers 7.12502
rthumb -4.06126 -27.0212
lclavicle -8.42847e-014 -4.13472e-014
lhumerus 72.1207 13.8153 28.5302
lradius 40.1871
lwrist -26.7248
lhand -36.0123 16.5896
lfingers 7.12502
lthumb -9.12171 46.3723
rfemur -11.5585 21.4982 5.91999
rtibia 26.9515
rfoot -18.5079 -14.2332
rtoes 3.79771
lfemur -2.0294 3.37838 -18.8657
ltibia 24.0961
lfoot 12.5166 32.5107
ltoes 9.81678
4471
root -3.4083 19.1351 1.66704 -11.6871 -47.4797 20.7804
lowerback 9.13952 -1.37159 -0.719122
upperback 2.12005 -1.79803 4.84734
thorax -2.73995 -0.915782 5.67044
lowerneck -15.2129 6.1956 -2.34584
upperneck -5.97773 8.31511 12.2698
head 0.0521794 4.24672 4.44218
rclavicle -2.38542e-014 -4.77083e-014
rhumerus -18.591 -6.32753 -60.4702
rradius 21.1913
rwrist 9.33344
rhand -31.2 362.925
rfingers 7.12502
rthumb -4.47623 -27.0075
lclavicle -2.38542e-014 -4.77083e-014
lhumerus 72.8576 14.4917 29.6092
lradius 39.9056
lwrist -27.0195
lhand -36.8882 16.5512
lfingers 7.12502
lthumb -9.96679 46.2953
rfemur -11.5205 21.6099 5.90765
rtibia 26.9085
rfoot -18.5348 -14.3655
rtoes 3.78503
lfemur -2.0131 3.57708 -18.914
ltibia 23.979
lfoot 12.3809 32.7432
ltoes 9.55066
4472
root -3.40653 19.1353 1.66791 -11.6956 -47.5376 20.8003
lowerback 9.17518 -1.27852 -0.862708
upperback 2.03899 -1.68287 4.83211
thorax -2.85217 -0.853459 5.72758
lowerneck -14.9747 6.15723 -2.66964
upperneck -6.43964 8.36523 12.5425
head -0.144994 4.25454 4.56101
rclavicle -6.44062e-014 -1.27222e-014
rhumerus -18.6354 -6.44356 -60.467
rradius 21.1948
rwrist 9.52219
rhand -31.101 362.843
rfingers 7.12502
rthumb -4.38062 -27.0915
lclavicle -6.44062e-014 -1.27222e-014
lhumerus 73.4715 15.1533 30.7005
lradius 39.4957
lwrist -27.223
lhand -37.284 17.0309
lfingers 7.12502
lthumb -10.3486 46.7563
rfemur -11.509 21.5803 5.87937
rtibia 26.8173
rfoot -18.49 -14.2821
rtoes 3.85532
lfemur -2.00281 3.84354 -18.9539
ltibia 23.9415
lfoot 11.9878 33.0695
ltoes 9.52447
4473
root -3.40543 19.1368 1.66693 -11.6025 -47.6092 20.6696
lowerback 9.18851 -1.20152 -0.976809
upperback 1.97513 -1.58638 4.90441
thorax -2.93085 -0.802014 5.86165
lowerneck -14.7516 6.1482 -3.15316
upperneck -6.83074 8.47524 12.8803
head -0.332337 4.29986 4.72906
rclavicle 9.54166e-015 6.36111e-015
rhumerus -18.5881 -6.59198 -60.4078
rradius 21.1665
rwrist 9.73374
rhand -30.979 362.988
rfingers 7.12502
rthumb -4.26287 -26.9493
lclavicle 9.54166e-015 6.36111e-015
lhumerus 74.0206 15.7225 32.0749
lradius 39.1356
lwrist -27.4579
lhand -37.5196 17.7073
lfingers 7.12502
lthumb -10.5759 47.4212
rfemur -11.4493 21.591 5.98004
rtibia 26.6815
rfoot -18.4734 -14.2109
rtoes 3.9808
lfemur -2.00779 4.1054 -18.8768
ltibia 23.9451
lfoot 11.6141 33.4032
ltoes 9.99588
4474
root -3.40295 19.1373 1.66624 -11.455 -47.5978 20.4218
lowerback 9.2542 -1.108 -1.00373
upperback 1.9411 -1.46051 4.96801
thorax -3.01395 -0.736984 5.93428
lowerneck -14.8726 6.08684 -3.14238
upperneck -6.83884 8.39014 12.7871
head -0.30589 4.26097 4.7018
rclavicle -1.13705e-013 -3.18055e-015
rhumerus -18.6103 -6.70754 -60.3364
rradius 21.1978
rwrist 9.77873
rhand -31.084 363.245
rfingers 7.12502
rthumb -4.36424 -26.6896
lclavicle -1.13705e-013 -3.18055e-015
lhumerus 74.7102 16.1595 33.6738
lradius 38.828
lwrist -28.0471
lhand -37.9519 18.0539
lfingers 7.12502
lthumb -10.9928 47.7461
rfemur -11.2896 21.6825 6.18636
rtibia 26.509
rfoot -18.608 -14.3238
rtoes 4.45194
lfemur -1.98394 4.27031 -18.7289
ltibia 23.976
lfoot 11.2946 33.6152
ltoes 10.277
4475
root -3.39833 19.1378 1.66655 -11.2987 -47.5403 20.106
lowerback 9.36957 -1.03195 -0.954634
upperback 1.91565 -1.35047 5.02053
thorax -3.11645 -0.680269 5.95448
lowerneck -14.9558 6.00274 -3.16133
upperneck -6.88799 8.28495 12.7457
head -0.298252 4.21036 4.69252
rclavicle -8.11041e-014 -2.8625e-014
rhumerus -18.6603 -6.88232 -60.2811
rradius 21.2685
rwrist 9.86787
rhand -31.2223 363.49
rfingers 7.12502
rthumb -4.49783 -26.4426
lclavicle -8.11041e-014 -2.8625e-014
lhumerus 75.4284 16.529 35.3187
lradius 38.545
lwrist -28.9178
lhand -38.3474 18.3261
lfingers 7.12502
lthumb -11.3743 47.9976
rfemur -11.076 21.7159 6.44385
rtibia 26.3202
rfoot -18.594 -14.4248
rtoes 4.60701
lfemur -1.95237 4.33901 -18.5401
ltibia 24.0319
lfoot 10.9823 33.8408
ltoes 10.4247
4476
root -3.39306 19.1394 1.67007 -11.1219 -47.49 19.7891
lowerback 9.3907 -0.986294 -0.828024
upperback 1.90698 -1.27606 5.05562
thorax -3.14743 -0.643714 5.91153
lowerneck -14.742 5.96283 -3.33366
upperneck -7.3184 8.30314 12.8276
head -0.468365 4.19981 4.73073
rclavicle 5.64548e-014 -5.08889e-014
rhumerus -18.663 -6.79217 -60.3606
rradius 21.4787
rwrist 9.62147
rhand -31.3151 363.09
rfingers 7.12502
rthumb -4.58745 -26.8401
lclavicle 5.64548e-014 -5.08889e-014
lhumerus 76.1154 16.8491 36.9041
lradius 38.3193
lwrist -29.4918
lhand -38.7158 18.3952
lfingers 7.12502
lthumb -11.7296 48.0468
rfemur -10.8694 21.6786 6.67558
rtibia 26.1357
rfoot -18.5202 -14.4065
rtoes 4.51414
lfemur -1.95685 4.41687 -18.3604
ltibia 24.0856
lfoot 10.6404 34.1803
ltoes 10.3979
4477
root -3.38746 19.1409 1.6727 -10.9751 -47.4119 19.6192
lowerback 9.35389 -0.963824 -0.760426
upperback 1.86073 -1.23834 5.02273
thorax -3.18154 -0.623658 5.83303
lowerneck -14.6434 5.95513 -3.2671
upperneck -7.49658 8.2993 12.7499
head -0.530996 4.18569 4.68944
rclavicle -8.82604e-014 3.18055e-015
rhumerus -18.6715 -6.65474 -60.5517
rradius 21.7337
rwrist 9.42714
rhand -31.6292 362.457
rfingers 7.12502
rthumb -4.89069 -27.4669
lclavicle -8.82604e-014 3.18055e-015
lhumerus 76.8156 17.1147 38.5306
lradius 38.1581
lwrist -29.8579
lhand -38.8875 18.104
lfingers 7.12502
lthumb -11.8952 47.7461
rfemur -10.7619 21.7564 6.76698
rtibia 25.9743
rfoot -18.5025 -14.5313
rtoes 4.62656
lfemur -2.04893 4.63772 -18.2807
ltibia 24.1192
lfoot 10.7351 34.3278
ltoes 9.66335
4478
root -3.38255 19.143 1.67209 -10.9179 -47.3471 19.5899
lowerback 9.3127 -0.929268 -0.842764
upperback 1.8254 -1.2001 4.95868
thorax -3.19923 -0.602305 5.80699
lowerneck -14.6425 5.98407 -3.23405
upperneck -7.58669 8.34104 12.7884
head -0.561312 4.20167 4.69557
rclavicle 6.91771e-014 -1.59028e-014
rhumerus -18.6225 -6.66952 -60.7389
rradius 21.8821
rwrist 9.38173
rhand -31.917 362.518
rfingers 7.12502
rthumb -5.16861 -27.3988
lclavicle 6.91771e-014 -1.59028e-014
lhumerus 77.5164 17.3188 40.1752
lradius 38.0697
lwrist -30.0773
lhand -38.6715 18.3369
lfingers 7.12502
lthumb -11.6869 47.9909
rfemur -10.7055 21.953 6.76136
rtibia 25.8446
rfoot -18.481 -14.751
rtoes 4.72793
lfemur -2.14795 4.77758 -18.2953
ltibia 24.1442
lfoot 10.6276 34.4895
ltoes 9.26387
4479
root -3.37681 19.1451 1.67039 -10.8369 -47.3347 19.5478
lowerback 9.26471 -0.821327 -0.866476
upperback 1.81655 -1.06071 4.86152
thorax -3.19807 -0.531905 5.69942
lowerneck -14.8016 5.97594 -3.16164
upperneck -7.67799 8.32388 12.8542
head -0.561921 4.19193 4.70937
rclavicle -1.51076e-014 1.27222e-014
rhumerus -18.6469 -6.76297 -60.905
rradius 22.1256
rwrist 9.01714
rhand -32.1262 362.914
rfingers 7.12502
rthumb -5.37054 -26.9983
lclavicle -1.51076e-014 1.27222e-014
lhumerus 78.3432 17.3417 41.8698
lradius 38.0903
lwrist -30.0872
lhand -38.4896 18.7319
lfingers 7.12502
lthumb -11.5114 48.3958
rfemur -10.7375 22.062 6.75891
rtibia 25.7594
rfoot -18.4098 -14.9111
rtoes 4.32385
lfemur -2.24887 4.81005 -18.2904
ltibia 24.1522
lfoot 10.3471 34.6634
ltoes 9.22276
4480
root -3.37039 19.1451 1.6694 -10.699 -47.3223 19.3766
lowerback 9.23979 -0.705565 -0.832395
upperback 1.81852 -0.904156 4.84099
thorax -3.19946 -0.45408 5.63897
lowerneck -14.9898 5.92466 -2.98064
upperneck -7.66527 8.21882 12.6465
head -0.508245 4.14109 4.62188
rclavicle -2.06736e-014 -2.54444e-014
rhumerus -18.717 -6.6743 -61.0142
rradius 22.5034
rwrist 8.42262
rhand -32.4265 362.85
rfingers 7.12502
rthumb -5.66053 -27.0539
lclavicle -2.06736e-014 -2.54444e-014
lhumerus 79.1143 17.301 43.5283
lradius 38.0826
lwrist -29.92
lhand -38.7282 18.817
lfingers 7.12502
lthumb -11.7416 48.4679
rfemur -10.7236 22.074 6.86078
rtibia 25.7085
rfoot -18.4275 -14.9387
rtoes 4.35599
lfemur -2.29 4.86516 -18.1832
ltibia 24.1507
lfoot 10.0973 34.7859
ltoes 9.42572
